<?xml version="1.0" encoding="UTF-8"?>
<svg width="512" height="512" viewBox="0 0 512 512" xmlns="http://www.w3.org/2000/svg">
  <!-- Main sheet -->
  <path d="M156 40C128.4 40 106 62.4 106 90V422C106 449.6 128.4 472 156 472H356C383.6 472 406 449.6 406 422V176L292 40H156Z"
        fill="#0F9D58"/>

  <!-- Fold -->
  <path d="M292 40V146C292 162.6 305.4 176 322 176H406L292 40Z"
        fill="#34A853"/>

  <!-- White container -->
  <rect x="150" y="218" width="212" height="146" rx="14" fill="white"/>

  <!-- Perfectly aligned 2x2 grid -->
  <rect x="178" y="246" width="48" height="40" rx="4" fill="#0F9D58"/>
  <rect x="250" y="246" width="48" height="40" rx="4" fill="#0F9D58"/>
  <rect x="178" y="302" width="48" height="40" rx="4" fill="#0F9D58"/>
  <rect x="250" y="302" width="48" height="40" rx="4" fill="#0F9D58"/>
</svg>
