<?xml version="1.0" encoding="UTF-8"?>
<svg width="512" height="512" viewBox="0 0 512 512" xmlns="http://www.w3.org/2000/svg">
  <!-- Main document shape -->
  <path d="M112 32C85.5 32 64 53.5 64 80V432C64 458.5 85.5 480 112 480H400C426.5 480 448 458.5 448 432V176L320 32H112Z"
        fill="#0F9D58"/>

  <!-- Folded corner -->
  <path d="M320 32V144C320 161.7 334.3 176 352 176H448L320 32Z"
        fill="#34A853"/>

  <!-- White table/grid -->
  <rect x="128" y="208" width="256" height="176" rx="18" fill="white"/>

  <!-- Grid cells -->
  <rect x="160" y="240" width="64" height="48" rx="6" fill="#0F9D58"/>
  <rect x="256" y="240" width="64" height="48" rx="6" fill="#0F9D58"/>
  <rect x="160" y="304" width="64" height="48" rx="6" fill="#0F9D58"/>
  <rect x="256" y="304" width="64" height="48" rx="6" fill="#0F9D58"/>
</svg>
